HIERARCHY
ROOT SpineBase
{
  OFFSET 0.000000 0.000000 0.000000
  CHANNELS 6 Xposition Yposition Zposition Zrotation Xrotation Yrotation
  JOINT SpineMid
  {
    OFFSET 0.000000 31.069127 0.000000
    CHANNELS 3 Zrotation Xrotation Yrotation
    JOINT SpineShoulder
    {
      OFFSET 0.112911 23.064961 -0.738317
      CHANNELS 3 Zrotation Xrotation Yrotation
      JOINT Neck
      {
        OFFSET 0.084813 7.624368 -0.556206
        CHANNELS 3 Zrotation Xrotation Yrotation
        JOINT Head
        {
          OFFSET 1.998447 13.362791 -1.458008
          CHANNELS 3 Zrotation Xrotation Yrotation
          End Site
          {
            OFFSET 0 0 0
          }
        }
      }
      JOINT ShoulderLeft
      {
        OFFSET -14.975391 -3.378689 -7.735562
        CHANNELS 3 Zrotation Xrotation Yrotation
        JOINT ElbowLeft
        {
          OFFSET -5.691971 -25.269533 -3.810923
          CHANNELS 3 Zrotation Xrotation Yrotation
          JOINT WristLeft
          {
            OFFSET -0.863011 -22.274881 -5.247034
            CHANNELS 3 Zrotation Xrotation Yrotation
            JOINT HandLeft
            {
              OFFSET 0.267646 -5.324300 0.017710
              CHANNELS 3 Zrotation Xrotation Yrotation
              JOINT HandTipLeft
              {
                OFFSET 0.274297 -6.014669 -0.872845
                CHANNELS 3 Zrotation Xrotation Yrotation
                End Site
                {
                  OFFSET 0 0 0
                }
              }
              JOINT ThumbLeft
              {
                OFFSET 3.174514 0.869735 0.246840
                CHANNELS 3 Zrotation Xrotation Yrotation
                End Site
                {
                  OFFSET 0 0 0
                }
              }
            }
          }
        }
      }
      JOINT ShoulderRight
      {
        OFFSET 17.194145 -5.372855 4.745637
        CHANNELS 3 Zrotation Xrotation Yrotation
        JOINT ElbowRight
        {
          OFFSET 4.872183 -25.592366 -0.765910
          CHANNELS 3 Zrotation Xrotation Yrotation
          JOINT WristRight
          {
            OFFSET -0.861705 -24.061687 -5.336742
            CHANNELS 3 Zrotation Xrotation Yrotation
            JOINT HandRight
            {
              OFFSET -0.161485 -3.102618 -0.993562
              CHANNELS 3 Zrotation Xrotation Yrotation
              JOINT HandTipRight
              {
                OFFSET 0.450592 -3.873543 -1.117199
                CHANNELS 3 Zrotation Xrotation Yrotation
                End Site
                {
                  OFFSET 0 0 0
                }
              }
              JOINT ThumbRight
              {
                OFFSET 3.157447 0.552548 -2.305557
                CHANNELS 3 Zrotation Xrotation Yrotation
                End Site
                {
                  OFFSET 0 0 0
                }
              }
            }
          }
        }
      }
    }
  }
  JOINT HipLeft
  {
    OFFSET -6.638452 0.958484 -6.116045
    CHANNELS 3 Zrotation Xrotation Yrotation
    JOINT KneeLeft
    {
      OFFSET -7.032459 -30.074351 2.330785
      CHANNELS 3 Zrotation Xrotation Yrotation
      JOINT AnkleLeft
      {
        OFFSET -2.408125 -31.623132 5.626886
        CHANNELS 3 Zrotation Xrotation Yrotation
        JOINT FootLeft
        {
          OFFSET 4.008715 -4.026801 -12.446377
          CHANNELS 3 Zrotation Xrotation Yrotation
          End Site
          {
            OFFSET 0 0 0
          }
        }
      }
    }
  }
  JOINT HipRight
  {
    OFFSET 7.552718 0.217312 -0.651017
    CHANNELS 3 Zrotation Xrotation Yrotation
    JOINT KneeRight
    {
      OFFSET -0.859095 -30.032739 6.250353
      CHANNELS 3 Zrotation Xrotation Yrotation
      JOINT AnkleRight
      {
        OFFSET -2.365575 -31.691162 6.915564
        CHANNELS 3 Zrotation Xrotation Yrotation
        JOINT FootRight
        {
          OFFSET -1.439692 -7.469063 -6.088459
          CHANNELS 3 Zrotation Xrotation Yrotation
          End Site
          {
            OFFSET 0 0 0
          }
        }
      }
    }
  }
}
MOTION
Frames: 13
Frame Time: 0.033333
-50.929000 73.217216 371.981381 -0.000000 0.000000 -21.061728 -0.000000 0.000000 21.061728 -0.000000 0.000000 0.000000 -0.000000 0.000000 0.000000 0.000000 0.000000 0.000000 -0.000000 0.000000 0.000000 -0.000000 0.000000 0.000000 -0.000000 0.000000 0.000000 -0.000000 0.000000 0.000000 0.000000 0.000000 0.000000 0.000000 0.000000 0.000000 -0.000000 0.000000 0.000000 -0.000000 0.000000 0.000000 -0.000000 0.000000 0.000000 -0.000000 0.000000 0.000000 0.000000 0.000000 0.000000 0.000000 0.000000 0.000000 -0.000000 0.000000 21.061728 -0.000000 0.000000 0.000000 -0.000000 0.000000 0.000000 0.000000 0.000000 0.000000 -0.000000 0.000000 21.061728 -0.000000 0.000000 0.000000 -0.000000 0.000000 0.000000 0.000000 0.000000 0.000000
-50.951874 73.232170 371.933423 0.033223 -0.050359 -21.057832 -0.049099 0.035058 21.057862 -0.000000 0.000000 0.000000 -0.000000 0.000000 0.000000 0.000000 0.000000 0.000000 -0.000000 0.000000 0.000000 1.235585 -0.185286 -0.282112 3.109820 -0.613961 0.276052 -4.342851 0.812266 0.057290 0.000000 0.000000 0.000000 0.000000 0.000000 0.000000 -0.000000 0.000000 0.000000 -0.000000 0.000000 0.000000 -1.371505 -5.706791 0.678534 -0.239494 0.226357 -0.908162 0.000000 0.000000 0.000000 0.000000 0.000000 0.000000 -0.049099 0.035058 21.057862 -0.000000 0.000000 0.000000 -0.000000 0.000000 0.000000 0.000000 0.000000 0.000000 -0.049099 0.035058 21.057862 -0.000000 0.000000 0.000000 1.096689 -1.841367 -0.529322 0.000000 0.000000 0.000000
-50.973094 73.249015 371.878746 0.073500 -0.096789 -21.025518 -0.103333 0.063975 21.025638 -0.000000 0.000000 0.000000 -0.000000 0.000000 0.000000 0.000000 0.000000 0.000000 -0.000000 0.000000 0.000000 2.315779 -0.318057 -0.527578 5.861725 -1.038673 0.549266 -9.079759 0.717458 0.262159 0.000000 0.000000 0.000000 0.000000 0.000000 0.000000 -0.000000 0.000000 0.000000 -0.000000 0.000000 0.000000 -2.592713 -9.878705 1.152248 -0.387723 0.593857 -1.557638 0.000000 0.000000 0.000000 0.000000 0.000000 0.000000 -0.103333 0.063975 21.025638 -0.000000 0.000000 0.000000 -0.000000 0.000000 0.000000 0.000000 0.000000 0.000000 -0.103333 0.063975 21.025638 -0.000000 0.000000 0.000000 2.168441 -2.915931 -1.179181 0.000000 0.000000 0.000000
-50.992662 73.267752 371.817350 0.120838 -0.139307 -20.964812 -0.162682 0.086850 20.965083 -0.000000 0.000000 0.000000 -0.000000 0.000000 0.000000 0.000000 0.000000 0.000000 -0.000000 0.000000 0.000000 3.248941 -0.398480 -0.740190 8.141155 -1.256527 0.800535 -12.292288 0.479511 0.318829 0.000000 0.000000 0.000000 0.000000 0.000000 0.000000 -0.000000 0.000000 0.000000 -0.000000 0.000000 0.000000 -3.664200 -12.545569 1.475903 -0.490250 0.793590 -1.980691 0.000000 0.000000 0.000000 0.000000 0.000000 0.000000 -0.168898 -0.765951 21.126456 0.313192 0.793237 -0.163578 -0.000000 0.000000 0.000000 0.000000 0.000000 0.000000 -0.162682 0.086850 20.965083 -0.000000 0.000000 0.000000 3.217892 -3.215496 -1.968993 0.000000 0.000000 0.000000
-51.010576 73.288380 371.749234 0.175249 -0.177925 -20.875720 -0.227147 0.103796 20.876198 -0.000000 0.000000 0.000000 -0.000000 0.000000 0.000000 0.000000 0.000000 0.000000 0.750759 0.260843 -0.173885 3.293892 -0.677159 -0.734495 9.864920 -1.258794 1.013472 -14.495441 -0.181175 0.276051 0.000000 0.000000 0.000000 0.000000 0.000000 0.000000 0.589719 -0.580793 -0.125127 -0.591016 0.579473 0.131104 -4.590708 -13.868114 1.700182 -0.584353 0.721184 -2.212163 0.000000 0.000000 0.000000 0.000000 0.000000 0.000000 -0.283634 -0.823000 21.043718 0.385544 0.844694 -0.170717 -0.000000 0.000000 0.000000 0.000000 0.000000 0.000000 -0.227147 0.103796 20.876198 -0.000000 0.000000 0.000000 4.253362 -2.741513 -2.915514 0.000000 0.000000 0.000000
-51.026837 73.310900 371.674399 0.236749 -0.212653 -20.758221 -0.296750 0.114937 20.758958 -0.000000 0.000000 0.000000 -0.000000 0.000000 0.000000 0.000000 0.000000 0.000000 0.901546 0.254754 -0.195635 3.803417 -0.644135 -0.866674 10.973893 -1.041523 1.177025 -15.633871 -1.274573 0.121291 0.000000 0.000000 0.000000 0.000000 0.000000 0.000000 0.710228 -0.743584 -0.158054 -0.712336 0.741565 0.167272 -5.379014 -14.051334 1.864305 -0.695650 0.390878 -2.280911 0.000000 0.000000 0.000000 0.000000 0.000000 0.000000 -0.427311 -0.780343 20.908871 0.441506 0.789720 -0.153714 -0.000000 0.000000 0.000000 0.000000 0.000000 0.000000 -0.296750 0.114937 20.758958 -0.000000 0.000000 0.000000 5.288276 -1.504018 -4.031852 0.000000 0.000000 0.000000
-51.008147 73.327288 371.628977 0.301421 -0.218613 -20.722062 -0.359275 0.097815 20.722943 -0.000000 0.000000 0.000000 -0.000000 0.000000 0.000000 0.000000 0.000000 0.000000 1.107722 0.302379 -0.238520 4.210284 -1.112980 -0.925845 10.840771 -1.746459 1.316042 -15.298927 -1.440771 0.160969 0.000000 0.000000 0.000000 0.000000 0.000000 0.000000 0.891904 -1.065356 -0.220959 -0.896160 1.061779 0.237555 -4.748956 -13.724786 1.730406 -2.893399 -1.748318 -1.710415 0.000000 0.000000 0.000000 0.000000 0.000000 0.000000 -0.618467 -0.755463 20.844249 0.545883 0.705185 -0.126153 -0.000000 0.000000 0.000000 0.000000 0.000000 0.000000 -0.359275 0.097815 20.722943 -0.000000 0.000000 0.000000 6.284932 2.142584 -5.628251 0.000000 0.000000 0.000000
-51.003459 73.356618 371.568510 0.369419 -0.244296 -20.636129 -0.431815 0.098422 20.637287 -0.000000 0.000000 0.000000 -0.361206 0.867862 -0.166528 0.000000 0.000000 0.000000 1.465468 0.275047 -0.287216 3.936463 -0.857640 -0.918823 9.965812 -1.229472 1.323600 -13.492193 -5.231140 -0.222356 0.000000 0.000000 0.000000 0.000000 0.000000 0.000000 1.032644 -1.224250 -0.252596 -1.180778 2.258470 0.272266 -5.400963 -13.519514 1.782849 -1.890655 1.100980 -1.373741 0.000000 0.000000 0.000000 0.000000 0.000000 0.000000 -0.431815 0.098422 20.637287 -0.000000 0.000000 0.000000 -0.000000 0.000000 0.000000 0.000000 0.000000 0.000000 -0.880769 -0.747448 20.503552 0.716831 0.634996 0.127220 6.879634 3.330066 -6.373182 0.000000 0.000000 0.000000
-51.004157 73.416371 371.519486 0.500625 -0.306389 -20.665271 -0.576541 0.109991 20.667163 0.812009 -0.221749 0.063272 -1.325988 1.390588 -0.283818 0.000000 0.000000 0.000000 0.882742 0.437995 -0.375297 3.492258 -0.409534 -0.885563 7.415144 1.121843 1.166101 -7.441890 -10.431068 -0.860454 0.000000 0.000000 0.000000 0.000000 0.000000 0.000000 0.357340 -0.924825 -0.305802 -1.222240 2.423543 0.229213 -6.210277 -10.781610 1.919026 -2.040221 -2.117404 -1.513844 0.000000 0.000000 0.000000 0.000000 0.000000 0.000000 -0.576541 0.109991 20.667163 -0.000000 0.000000 0.000000 -0.000000 0.000000 0.000000 0.000000 0.000000 0.000000 -1.257417 -1.410854 20.449492 1.169541 1.186947 0.197826 5.767666 -2.304694 -4.254275 0.000000 0.000000 0.000000
-51.080124 73.458518 371.346093 0.621346 -0.371659 -20.178108 0.159693 0.094849 20.206602 0.115448 0.049610 0.042143 -1.468051 1.478349 -0.297384 0.000000 0.000000 0.000000 0.419623 0.188842 -0.253714 4.354780 0.874510 -1.239762 6.314777 3.197836 1.319017 -4.139586 -12.502279 -1.061853 0.000000 0.000000 0.000000 0.000000 0.000000 0.000000 0.190992 -0.680629 -0.281454 -1.275309 3.095563 0.189842 -6.519078 -10.143231 1.917076 -2.527772 -3.872804 -1.504403 0.000000 0.000000 0.000000 0.000000 0.000000 0.000000 -0.711411 0.134503 20.180958 0.128971 -1.250185 0.119340 -0.426459 1.384309 0.949971 0.000000 0.000000 0.000000 -1.393664 -0.645989 20.003023 0.692951 -0.303891 0.183756 7.434448 0.429602 -5.993496 0.000000 0.000000 0.000000
-51.215343 73.474944 371.022284 0.710561 -0.402282 -19.155405 0.142399 0.103254 19.186720 0.101999 0.046135 0.044387 -1.210624 1.354810 -0.251093 0.000000 0.000000 0.000000 -0.383088 -0.363555 -0.011361 6.373741 3.243300 -2.032561 7.214571 4.609056 1.743901 -4.483200 -10.525481 -1.360358 0.000000 0.000000 0.000000 0.000000 0.000000 0.000000 -0.030167 -0.763285 -0.300176 -1.514421 5.160054 0.243931 -7.364049 -8.560812 1.944959 -1.210237 -7.631707 -2.237853 0.000000 0.000000 0.000000 0.000000 0.000000 0.000000 -1.406956 1.086896 18.891107 0.554461 -3.038790 0.484971 -0.780319 2.182125 1.620561 0.000000 0.000000 0.000000 -1.215994 0.996241 19.113014 -0.573617 -3.259281 0.049139 8.362792 9.100088 -8.056601 0.000000 0.000000 0.000000
-51.424630 73.448026 370.553403 0.800721 -0.344166 -17.784541 0.145259 0.148155 17.818249 0.103889 0.056065 0.048035 -0.811722 1.708768 -0.281504 0.000000 0.000000 0.000000 -1.609652 -1.360216 0.343823 8.542137 6.947760 -3.096859 13.323346 3.772036 2.558132 -10.640246 -5.405844 -2.206309 0.000000 0.000000 0.000000 0.000000 0.000000 0.000000 -0.644801 -1.214859 -0.356839 -0.330234 7.786332 0.017413 -11.479843 -7.855967 2.534360 1.870829 -8.375263 -2.960175 0.000000 0.000000 0.000000 0.000000 0.000000 0.000000 -1.404487 1.406740 17.452945 0.666674 -4.165775 0.672844 -1.255967 3.107845 2.371269 0.000000 0.000000 0.000000 -0.898784 3.277079 17.898774 -2.430160 -8.210885 -0.212560 8.916460 14.156588 -8.671672 0.000000 0.000000 0.000000
-51.687963 73.376563 369.991141 0.802275 -0.375945 -16.114046 0.094504 0.064165 16.146845 0.053151 0.009831 0.042933 -0.467259 1.072824 -0.134224 0.000000 0.000000 0.000000 -2.845199 -1.960163 0.701794 12.907841 11.809817 -5.054515 16.167383 2.964539 4.344938 -15.027286 -0.985616 -3.307205 0.000000 0.000000 0.000000 0.000000 0.000000 0.000000 -0.831402 -1.514407 -0.425452 -1.611539 11.605052 0.487471 -15.597132 -9.585307 2.656764 7.129659 -4.720254 -3.471731 0.000000 0.000000 0.000000 0.000000 0.000000 0.000000 -1.281766 1.732293 15.743473 0.823602 -5.146224 0.845955 -2.021463 4.005180 3.892462 0.000000 0.000000 0.000000 -0.095979 7.171083 16.447381 -5.767037 -14.404707 -1.116322 10.579145 12.620396 -8.455794 0.000000 0.000000 0.000000
